<svg width="71" height="71" viewBox="0 0 71 71" fill="none" xmlns="http://www.w3.org/2000/svg">
<mask id="mask0" mask-type="alpha" maskUnits="userSpaceOnUse" x="4" y="0" width="64" height="68">
<path d="M60.4844 46.6719C61.0156 45.7031 61.7969 45.0625 62.8281 44.75C63.8906 44.4688 64.8906 44.5781 65.8281 45.0781C66.7969 45.6094 67.4375 46.4062 67.75 47.4688C68.0625 48.5 67.9531 49.5 67.4219 50.4688C64.4531 55.875 60.3125 60.1562 55 63.3125C49.7188 66.4375 44 68 37.8438 68C28.5312 68 20.5938 64.7031 14.0312 58.1094C7.4375 51.5156 4.14062 43.5625 4.14062 34.25C4.14062 24.9688 7.4375 17.0313 14.0312 10.4375C20.5938 3.84375 28.5312 0.546875 37.8438 0.546875C41.9375 0.546875 45.9062 1.28125 49.75 2.75C53.5938 4.1875 57.0625 6.26562 60.1562 8.98438C60.9688 9.70312 61.4062 10.6094 61.4688 11.7031C61.5312 12.7969 61.2031 13.75 60.4844 14.5625C59.7656 15.375 58.8594 15.8281 57.7656 15.9219C56.6719 15.9844 55.7188 15.6562 54.9062 14.9375C52.5625 12.8437 49.9219 11.25 46.9844 10.1562C44.0781 9.03125 41.0312 8.46875 37.8438 8.46875C30.7188 8.46875 24.6406 10.9844 19.6094 16.0156C14.5781 21.0781 12.0625 27.1562 12.0625 34.25C12.0625 41.375 14.5781 47.4531 19.6094 52.4844C24.6406 57.5156 30.7188 60.0312 37.8438 60.0312C42.5625 60.0312 46.9375 58.8438 50.9688 56.4688C55.0312 54.0625 58.2031 50.7969 60.4844 46.6719Z" fill="black"/>
<path d="M55.7383 38.2734C56.2487 37.3255 57.0508 36.6875 58.1445 36.3594C59.2565 36.013 60.332 36.0768 61.3711 36.5508C62.4284 37.0065 63.1393 37.7357 63.5039 38.7383C63.8867 39.7227 63.8229 40.6888 63.3125 41.6367C61.5625 44.7904 59.1198 47.2969 55.9844 49.1562C52.776 51.0521 49.3125 52 45.5938 52C39.9427 52 35.1484 50.0312 31.2109 46.0938C27.3828 42.2656 25.4688 37.6719 25.4688 32.3125C25.4688 26.9714 27.3828 22.3776 31.2109 18.5312C35.1484 14.5938 39.9427 12.625 45.5938 12.625C48.0911 12.625 50.5065 13.0625 52.8398 13.9375C55.1185 14.8125 57.1875 16.0703 59.0469 17.7109C59.8854 18.4401 60.3047 19.3242 60.3047 20.3633C60.3229 21.4206 59.9219 22.3229 59.1016 23.0703C58.2812 23.8177 57.2878 24.2005 56.1211 24.2188C54.9544 24.2188 53.9518 23.8542 53.1133 23.125C52.0742 22.1953 50.8893 21.4753 49.5586 20.9648C48.2826 20.4909 46.9609 20.2539 45.5938 20.2539C42.4583 20.2539 39.7604 21.3841 37.5 23.6445C35.1302 26.0143 33.9453 28.9036 33.9453 32.3125C33.9453 35.7396 35.1302 38.638 37.5 41.0078C39.7604 43.2682 42.4583 44.3984 45.5938 44.3984C47.6719 44.3984 49.5859 43.8698 51.3359 42.8125C53.1953 41.7188 54.6628 40.2057 55.7383 38.2734Z" fill="black"/>
</mask>
<g mask="url(#mask0)">
<circle cx="35.5" cy="35.5" r="35.5" transform="rotate(-60 35.5 35.5)" fill="url(#paint0_linear)"/>
</g>
<defs>
<linearGradient id="paint0_linear" x1="35.5" y1="-3.8147e-06" x2="35.5" y2="71" gradientUnits="userSpaceOnUse">
<stop stop-color="#5D5FEF"/>
<stop offset="1" stop-color="#EF5DA8"/>
</linearGradient>
</defs>
</svg>
